<svg xmlns="http://www.w3.org/2000/svg" version="1.1" xmlns:xlink="http://www.w3.org/1999/xlink" width="512" height="512" x="0" y="0" viewBox="0 0 256 256" style="enable-background:new 0 0 512 512" xml:space="preserve" class=""><g><path fill="#9be5f9" d="M143.278 156.321c-15.117-17.761-28.142-37.668-36.6-59.475-3.054-7.874-14.322-7.874-17.376 0-8.458 21.808-21.483 41.714-36.6 59.475-32.57 38.266-4.963 97.179 45.288 97.179s77.858-58.913 45.288-97.179z" opacity="1" data-original="#9be5f9" class=""></path><path fill="#cbeff7" d="M144.784 54.054c-4.628-5.437-8.615-11.531-11.204-18.206-.935-2.41-4.384-2.41-5.319 0-2.589 6.676-6.576 12.769-11.204 18.206-9.97 11.714-1.519 29.747 13.863 29.747 15.383.001 23.834-18.033 13.864-29.747z" opacity="1" data-original="#cbeff7" class=""></path><path fill="#edf4fc" d="M166.299 98.726c-9.877 4.674-16.454 15.181-15.273 27.077 1.286 12.964 12.009 23.271 25.01 24.096 15.652.993 28.657-11.408 28.657-26.846 0-10.695-6.242-19.93-15.281-24.266-1.522-.73-2.532-2.222-2.532-3.911V17.458c0-4.841-3.653-9.067-8.484-9.38a9.089 9.089 0 0 0-9.693 9.069v77.695c0 1.645-.916 3.18-2.404 3.884z" opacity="1" data-original="#edf4fc" class=""></path><path fill="#70d6f9" d="M168.703 53.221v41.62c0 1.646-.916 3.18-2.404 3.884-9.877 4.673-16.454 15.181-15.273 27.077 1.286 12.964 12.009 23.271 25.01 24.096 15.652.993 28.657-11.408 28.657-26.846 0-10.695-6.242-19.93-15.281-24.266-1.522-.73-2.532-2.222-2.532-3.911V53.22h-18.177z" opacity="1" data-original="#70d6f9" class=""></path><path fill="#f5c84c" d="M64.013 40.2c-3.1-.6-5.6-3-6.2-6.1 0-.1-.3-.1-.3 0-.6 3.1-3.1 5.5-6.2 6.1-.1 0-.1.2 0 .3 3.1.6 5.6 3 6.2 6.1 0 .1.3.1.3 0 .6-3.1 3.1-5.5 6.2-6.1.1-.1.1-.3 0-.3z" opacity="1" data-original="#f5c84c" class=""></path><path fill="#70d6f9" d="M24.013 117.5h2.3v2.3c0 1.8 1.4 3.2 3.2 3.2 1.7 0 3.2-1.4 3.2-3.1v-2.4h2.3c1.8 0 3.2-1.4 3.2-3.2 0-1.7-1.4-3.2-3.1-3.2h-2.4v-2.3c0-1.8-1.4-3.2-3.2-3.2-1.7 0-3.2 1.4-3.2 3.1v2.4h-2.3c-1.8 0-3.2 1.4-3.2 3.2-.1 1.7 1.3 3.2 3.2 3.2-.1 0-.1 0 0 0z" opacity="1" data-original="#70d6f9" class=""></path><circle cx="181.413" cy="231.9" r="3.4" fill="#fc657e" opacity="1" data-original="#fc657e"></circle><circle cx="116.413" cy="3.4" r="3.4" fill="#87d147" opacity="1" data-original="#87d147" class=""></circle><path fill="#f5c84c" d="M207.813 186.2c4.5-.8 8-4.3 8.9-8.7 0-.2.4-.2.4 0 .9 4.4 4.4 7.9 8.9 8.7.2 0 .2.3 0 .4-4.5.8-8 4.3-8.9 8.7 0 .2-.4.2-.4 0-.9-4.4-4.4-7.9-8.9-8.7-.2-.1-.2-.4 0-.4z" opacity="1" data-original="#f5c84c" class=""></path><path d="M212.108 30.565h-5.279a2.5 2.5 0 1 1 0-5h5.279a2.5 2.5 0 1 1 0 5zM212.108 68.299h-5.279a2.5 2.5 0 1 1 0-5h5.279a2.5 2.5 0 1 1 0 5zM212.108 43.143h-5.279a2.5 2.5 0 1 1 0-5h5.279a2.5 2.5 0 1 1 0 5zM217.387 93.456h-10.558a2.5 2.5 0 1 1 0-5h10.558a2.5 2.5 0 1 1 0 5zM217.387 17.987h-10.558a2.5 2.5 0 1 1 0-5h10.558a2.5 2.5 0 1 1 0 5zM212.108 80.877h-5.279a2.5 2.5 0 1 1 0-5h5.279a2.5 2.5 0 1 1 0 5zM217.387 55.721h-10.558a2.5 2.5 0 1 1 0-5h10.558a2.5 2.5 0 1 1 0 5zM97.99 256c-24.353 0-45.84-13.763-56.077-35.917-10.149-21.966-6.745-47.02 8.885-65.382 16.315-19.168 28.486-38.938 36.173-58.759 1.768-4.557 6.093-7.501 11.019-7.501s9.251 2.944 11.019 7.501c7.687 19.821 19.857 39.59 36.173 58.759 15.629 18.363 19.034 43.416 8.885 65.382C143.83 242.237 122.343 256 97.99 256zm0-162.56c-2.266 0-5.125 1.132-6.357 4.309-7.89 20.345-20.348 40.596-37.027 60.192-14.351 16.86-17.475 39.868-8.153 60.044C55.861 238.35 75.609 251 97.99 251s42.129-12.65 51.538-33.014c9.322-20.176 6.198-43.184-8.153-60.044-16.679-19.596-29.137-39.848-37.027-60.192-1.233-3.177-4.093-4.31-6.358-4.31zM130.921 86.302c-8.139 0-15.32-4.599-18.74-12.002-3.394-7.345-2.254-15.724 2.974-21.866 4.868-5.719 8.493-11.604 10.777-17.49.801-2.067 2.76-3.403 4.989-3.403s4.188 1.336 4.991 3.403c2.283 5.887 5.909 11.771 10.777 17.49 5.228 6.142 6.367 14.521 2.974 21.866-3.422 7.403-10.603 12.002-18.742 12.002zm0-49.761c-.246 0-.304.148-.328.211-2.486 6.41-6.399 12.776-11.631 18.922-3.95 4.64-4.809 10.974-2.242 16.528 2.593 5.613 8.035 9.099 14.201 9.099s11.608-3.487 14.202-9.099c2.566-5.555 1.708-11.888-2.242-16.528-5.231-6.146-9.145-12.513-11.631-18.923-.025-.062-.083-.21-.329-.21z" fill="#000000" opacity="1" data-original="#000000" class=""></path><path d="M77.079 227.644a2.5 2.5 0 0 1-2.132-3.803l41.817-68.52a2.5 2.5 0 1 1 4.268 2.604l-41.817 68.52a2.495 2.495 0 0 1-2.136 1.199zM86.042 183.02c-6.319 0-11.461-5.141-11.461-11.46v-5.974c0-6.32 5.141-11.461 11.46-11.461s11.461 5.141 11.461 11.461v5.974c.001 6.318-5.14 11.46-11.46 11.46zm0-23.896a6.468 6.468 0 0 0-6.461 6.461v5.974a6.467 6.467 0 0 0 6.46 6.46 6.467 6.467 0 0 0 6.46-6.46v-5.974a6.465 6.465 0 0 0-6.459-6.461zM109.938 227.644c-6.319 0-11.461-5.141-11.461-11.461v-5.974c0-6.319 5.142-11.46 11.461-11.46s11.46 5.141 11.46 11.46v5.974c0 6.319-5.141 11.461-11.46 11.461zm0-23.896a6.468 6.468 0 0 0-6.461 6.46v5.974c0 3.563 2.898 6.461 6.461 6.461s6.46-2.898 6.46-6.461v-5.974a6.467 6.467 0 0 0-6.46-6.46zM177.817 152.455c-.644 0-1.29-.021-1.939-.062-14.185-.9-25.938-12.226-27.34-26.344-1.229-12.389 5.479-24.278 16.692-29.583.591-.28.973-.917.973-1.624V17.146c0-3.191 1.336-6.273 3.665-8.456a11.464 11.464 0 0 1 8.69-3.107c6.068.393 10.822 5.608 10.822 11.875v77.418c0 .692.427 1.327 1.113 1.657 10.145 4.866 16.7 15.276 16.7 26.52a29.516 29.516 0 0 1-9.285 21.443c-5.51 5.171-12.583 7.959-20.091 7.959zm-.027-141.897a6.528 6.528 0 0 0-4.503 1.78 6.526 6.526 0 0 0-2.084 4.808v77.695c0 2.629-1.505 5.041-3.833 6.144-9.308 4.404-14.876 14.278-13.855 24.57 1.162 11.708 10.913 21.101 22.681 21.848 6.831.435 13.327-1.895 18.292-6.554 4.97-4.664 7.707-10.985 7.707-17.797 0-9.332-5.441-17.972-13.863-22.012-2.437-1.169-3.951-3.531-3.951-6.165V17.458c0-3.638-2.699-6.662-6.145-6.885a6.734 6.734 0 0 0-.446-.015zm-11.491 88.168h.01z" fill="#000000" opacity="1" data-original="#000000" class=""></path><path d="M177.817 152.455c-.644 0-1.29-.021-1.939-.062-14.185-.9-25.938-12.226-27.34-26.344-1.229-12.389 5.479-24.278 16.692-29.583.591-.28.973-.917.973-1.624V53.221a2.5 2.5 0 0 1 2.5-2.5h18.177a2.5 2.5 0 0 1 2.5 2.5v41.655c0 .692.427 1.327 1.113 1.657 10.145 4.866 16.7 15.276 16.7 26.52a29.516 29.516 0 0 1-9.285 21.443c-5.51 5.171-12.583 7.959-20.091 7.959zm-6.614-96.734v39.121c0 2.629-1.505 5.041-3.833 6.144-9.309 4.404-14.876 14.278-13.855 24.57 1.162 11.708 10.913 21.101 22.681 21.848 6.831.435 13.327-1.895 18.292-6.554 4.97-4.664 7.707-10.985 7.707-17.797 0-9.332-5.441-17.972-13.863-22.012-2.437-1.169-3.951-3.531-3.951-6.165V55.721z" fill="#000000" opacity="1" data-original="#000000" class=""></path></g></svg>