<svg xmlns="http://www.w3.org/2000/svg" version="1.1" xmlns:xlink="http://www.w3.org/1999/xlink" width="512" height="512" x="0" y="0" viewBox="0 0 512 512" style="enable-background:new 0 0 512 512" xml:space="preserve" class=""><g><path fill="#a8d3d8" d="M169.578 382.508h88.906v98.617h-88.906zm0 0" opacity="1" data-original="#a8d3d8" class=""></path><path fill="#537983" d="M428.063 214.031c0 118.207-95.825 214.031-214.032 214.031S0 332.238 0 214.032 95.824 0 214.031 0s214.031 95.824 214.031 214.031zm0 0" opacity="1" data-original="#537983" class=""></path><path fill="#deecf1" d="M392.242 214.031c0 98.422-79.789 178.211-178.21 178.211S35.82 312.453 35.82 214.032 115.61 35.82 214.031 35.82s178.211 79.79 178.211 178.211zm0 0" opacity="1" data-original="#deecf1" class=""></path><path fill="#a8d3d8" d="M214.031 35.82c-5.41 0-10.761.243-16.047.715 90.973 8.047 162.309 84.434 162.309 177.496s-71.336 169.45-162.309 177.496c5.286.473 10.637.715 16.047.715 98.422 0 178.207-79.789 178.207-178.21.004-98.423-79.785-178.212-178.207-178.212zm0 0" opacity="1" data-original="#a8d3d8" class=""></path><path fill="#00bfd8" d="M364.414 206.305H351.98c-1.683-30.38-13.312-60.297-34.89-84.407l8.742-8.742a7.726 7.726 0 1 0-10.926-10.926l-8.746 8.743c-24.105-21.578-54.027-33.207-84.402-34.895v-12.43a7.724 7.724 0 0 0-7.727-7.726 7.726 7.726 0 0 0-7.726 7.726v12.43c-30.375 1.688-60.293 13.317-84.403 34.895l-8.742-8.746a7.733 7.733 0 0 0-10.93 0 7.733 7.733 0 0 0 0 10.93l8.747 8.741c-21.582 24.11-33.211 54.028-34.895 84.407H63.648a7.722 7.722 0 0 0-7.722 7.722 7.723 7.723 0 0 0 7.722 7.727h12.434c1.684 30.379 13.313 60.297 34.89 84.406l-8.738 8.742a7.721 7.721 0 0 0 0 10.926 7.687 7.687 0 0 0 5.461 2.266 7.695 7.695 0 0 0 5.465-2.266l14.043-14.043c.004-.004.004-.004.008-.004.187-.191.363-.386.527-.59a7.722 7.722 0 0 0-.527-10.34l-.047-.042c-47.824-47.871-47.816-125.72.027-173.582a.085.085 0 0 1 .02-.016c.008-.008.012-.016.02-.023 47.874-47.852 125.75-47.848 173.62.015 0 .004 0 .004.004.008 0 0 .004 0 .004.004 47.86 47.863 47.868 125.734.024 173.61-.008.01-.02.019-.028.027a7.712 7.712 0 0 0-2.12 6.937 7.672 7.672 0 0 0 2.12 3.992l.036.035 14.015 14.012a7.687 7.687 0 0 0 5.461 2.266 7.726 7.726 0 0 0 5.465-13.191l-8.742-8.743c21.578-24.11 33.207-54.027 34.89-84.402h12.434c4.27 0 7.727-3.461 7.727-7.727a7.724 7.724 0 0 0-7.727-7.726zm0 0" opacity="1" data-original="#00bfd8" class=""></path><path fill="#537983" d="M348.45 512H79.61c-7.262 0-13.15-5.887-13.15-13.152 0-20.07 16.27-36.34 36.34-36.34h222.462c20.07 0 36.34 16.27 36.34 36.34 0 7.265-5.887 13.152-13.153 13.152zm0 0" opacity="1" data-original="#537983" class=""></path><path fill="#3e5959" d="M325.262 462.508h-17.235v.062c12.657.852 22.66 11.383 22.66 24.258V512h17.762c7.266 0 13.153-5.887 13.153-13.152 0-20.07-16.27-36.34-36.34-36.34zm0 0" opacity="1" data-original="#3e5959"></path><path fill="#79aa1e" d="M241.863 331.57H186.2a7.723 7.723 0 0 1-7.726-7.722 7.724 7.724 0 0 1 7.726-7.727h55.664a7.726 7.726 0 0 1 7.727 7.727 7.723 7.723 0 0 1-7.727 7.722zm0 0" opacity="1" data-original="#79aa1e"></path><path fill="#ff4755" d="M268.89 70.676c-7.156-2.715-15.163.879-17.882 8.039l-66.992 176.512c-2.715 7.144.867 15.136 8.007 17.867 7.165 2.742 15.192-.86 17.915-8.028L276.925 88.56c2.719-7.157-.88-15.164-8.035-17.883zm0 0" opacity="1" data-original="#ff4755" class=""></path><path fill="#3e5959" d="M242.773 214.031c0 15.875-12.867 28.742-28.742 28.742s-28.742-12.867-28.742-28.742 12.867-28.742 28.742-28.742 28.742 12.867 28.742 28.742zm0 0" opacity="1" data-original="#3e5959"></path></g></svg>