<svg xmlns="http://www.w3.org/2000/svg" version="1.1" xmlns:xlink="http://www.w3.org/1999/xlink" width="512" height="512" x="0" y="0" viewBox="0 0 500 500" style="enable-background:new 0 0 512 512" xml:space="preserve" class=""><g><g fill-rule="evenodd" clip-rule="evenodd"><path fill="#60b7fe" d="M135.385 119.357a55.88 55.88 0 0 1 22.779 4.822c5.978-44.038 43.722-77.982 89.4-77.982 39.584 0 73.211 25.491 85.37 60.952a36.417 36.417 0 0 1 21.931-7.302c20.202 0 36.58 16.378 36.58 36.58a36.418 36.418 0 0 1-7.315 21.949c20.118 0 36.579 16.461 36.579 36.58s-16.461 36.58-36.58 36.58H135.385c-30.977 0-56.089-25.112-56.089-56.09 0-30.977 25.112-56.089 56.089-56.089z" opacity="1" data-original="#60b7fe"></path><path fill="#ffbf31" d="M184.158 187.64h131.688c5.365 0 9.755 4.389 9.755 9.755v43.897c0 5.365-4.39 9.754-9.755 9.754H184.158c-5.365 0-9.754-4.389-9.754-9.754v-43.897c0-5.366 4.389-9.755 9.754-9.755z" opacity="1" data-original="#ffbf31"></path><circle cx="91.489" cy="442.364" r="11.445" fill="#fa6e85" opacity="1" data-original="#fa6e85"></circle><circle cx="145.14" cy="442.364" r="11.445" fill="#fa6e85" transform="rotate(-9.25 145.017 442.939)" opacity="1" data-original="#fa6e85"></circle><path fill="#ffbf31" d="M75.053 336.752h86.524c4.373 0 7.95 3.577 7.95 7.95v37.75c0 4.373-3.578 7.95-7.95 7.95H75.053c-4.373 0-7.95-3.577-7.95-7.95v-37.75c-.001-4.372 3.577-7.95 7.95-7.95z" opacity="1" data-original="#ffbf31"></path><path fill="#fa6e85" d="M223.177 453.809c6.321 0 11.445-5.124 11.445-11.445s-5.124-11.445-11.445-11.445-11.445 5.124-11.445 11.445c.001 6.321 5.124 11.445 11.445 11.445zM276.828 453.809c6.321 0 11.445-5.124 11.445-11.445s-5.124-11.445-11.445-11.445-11.445 5.124-11.445 11.445c.001 6.321 5.124 11.445 11.445 11.445z" opacity="1" data-original="#fa6e85"></path><path fill="#ffbf31" d="M206.741 336.752h86.524c4.373 0 7.95 3.577 7.95 7.95v37.75c0 4.373-3.577 7.95-7.95 7.95h-86.524c-4.373 0-7.95-3.577-7.95-7.95v-37.75c0-4.372 3.577-7.95 7.95-7.95z" opacity="1" data-original="#ffbf31"></path><circle cx="354.866" cy="442.364" r="11.445" fill="#fa6e85" opacity="1" data-original="#fa6e85"></circle><circle cx="408.516" cy="442.364" r="11.445" fill="#fa6e85" transform="rotate(-9.25 408.679 443.105)" opacity="1" data-original="#fa6e85"></circle><path fill="#ffbf31" d="M338.429 336.752h86.524c4.373 0 7.95 3.577 7.95 7.95v37.75c0 4.373-3.578 7.95-7.95 7.95h-86.524c-4.373 0-7.95-3.577-7.95-7.95v-37.75c0-4.372 3.577-7.95 7.95-7.95z" opacity="1" data-original="#ffbf31"></path><path fill="#1e2f3f" d="M297.583 203.686h-1.616a6.37 6.37 0 0 0-6.37 6.386c0 3.488 2.855 6.333 6.37 6.333h1.616c3.515 0 6.37-2.844 6.37-6.333a6.37 6.37 0 0 0-6.37-6.386zm112.544 146.187h-1.615c-3.515 0-6.37 2.844-6.37 6.386s2.855 6.386 6.37 6.386h1.615c3.515 0 6.365-2.844 6.365-6.386s-2.85-6.386-6.365-6.386zm-133.302 12.773h1.61c3.52 0 6.365-2.844 6.365-6.386s-2.844-6.386-6.365-6.386h-1.61a6.366 6.366 0 0 0-6.365 6.386 6.367 6.367 0 0 0 6.365 6.386zm149.708-17.925v37.727c0 .859-.725 1.61-1.578 1.61h-86.526c-.859 0-1.583-.751-1.583-1.61v-37.727c0-.859.725-1.61 1.583-1.61h86.526c.853 0 1.578.751 1.578 1.61zm-12.945 97.619c0-2.791-2.275-5.045-5.077-5.045-2.791 0-5.071 2.254-5.071 5.045a5.073 5.073 0 0 0 5.071 5.098 5.07 5.07 0 0 0 5.077-5.098zm-53.65 0c0-2.791-2.275-5.045-5.071-5.045-2.801 0-5.077 2.254-5.077 5.045a5.07 5.07 0 0 0 5.077 5.098 5.07 5.07 0 0 0 5.071-5.098zm-44.092-197.653H184.154c-1.83 0-3.381-1.556-3.381-3.381v-43.899c0-1.825 1.551-3.381 3.381-3.381h131.692c1.835 0 3.381 1.556 3.381 3.381v43.899c0 1.825-1.546 3.381-3.381 3.381zm-109.109 98.424h86.521c.859 0 1.588.751 1.588 1.61v37.727c0 .859-.73 1.61-1.588 1.61h-86.521c-.848 0-1.583-.751-1.583-1.61v-37.727c0-.859.735-1.61 1.583-1.61zm75.17 99.229c0-2.791-2.275-5.045-5.082-5.045-2.801 0-5.077 2.254-5.077 5.045a5.07 5.07 0 0 0 5.077 5.098 5.072 5.072 0 0 0 5.082-5.098zm-53.655 0c0-2.791-2.275-5.045-5.077-5.045-2.801 0-5.077 2.254-5.077 5.045a5.07 5.07 0 0 0 5.077 5.098 5.071 5.071 0 0 0 5.077-5.098zm-44.098-261.086c-8.892 0-16.116 7.245-16.116 16.153v27.746h-32.651c-27.423 0-49.722-22.271-49.722-49.695 0-35.852 36.953-60.039 69.906-45.456 3.789 1.677 8.329-.702 8.898-4.937 5.613-41.323 41.334-72.503 83.097-72.503 35.833 0 67.721 22.754 79.34 56.672 1.401 4.097 6.365 5.621 9.848 3.005a30.097 30.097 0 0 1 18.112-6.01c24.928 0 38.999 28.578 24.171 48.3-3.148 4.187-.137 10.197 5.093 10.197 16.653 0 30.203 13.578 30.203 30.214 0 16.69-13.551 30.214-30.203 30.214h-52.164v-27.746c0-8.909-7.229-16.153-16.121-16.153H184.154zM75.051 343.111c-.859 0-1.578.751-1.578 1.61v37.727c0 .859.719 1.61 1.578 1.61h86.526c.853 0 1.578-.751 1.578-1.61v-37.727c0-.859-.725-1.61-1.578-1.61zm75.159 99.229c0-2.791-2.27-5.045-5.077-5.045-2.791 0-5.066 2.254-5.066 5.045a5.068 5.068 0 0 0 5.066 5.098 5.068 5.068 0 0 0 5.077-5.098zm-53.65 0c0-2.791-2.275-5.045-5.066-5.045-2.807 0-5.082 2.254-5.082 5.045a5.072 5.072 0 0 0 5.082 5.098 5.068 5.068 0 0 0 5.066-5.098zm342.708-97.619v37.727c0 7.889-6.419 14.329-14.313 14.329h-10.073v28.98c6.681 2.576 11.447 9.016 11.447 16.583 0 9.875-7.991 17.817-17.817 17.817-9.816 0-17.806-7.943-17.806-17.817 0-7.567 4.76-14.007 11.436-16.583v-28.98h-40.904v28.98c6.676 2.576 11.442 9.016 11.442 16.583 0 9.875-7.996 17.817-17.812 17.817-9.826 0-17.812-7.943-17.812-17.817 0-7.567 4.76-14.007 11.442-16.583v-28.98H338.43c-7.9 0-14.318-6.44-14.318-14.329v-37.727c0-7.889 6.419-14.329 14.318-14.329h10.803V317.19l-55.437-33.273a6.31 6.31 0 0 1-3.091-5.42v-21.091h-34.33v72.986h36.885c7.9 0 14.329 6.44 14.329 14.329v37.727c0 7.889-6.429 14.329-14.329 14.329h-10.062v28.98c6.682 2.576 11.447 9.016 11.447 16.583 0 9.875-7.991 17.817-17.817 17.817s-17.812-7.943-17.812-17.817c0-7.567 4.76-14.007 11.447-16.583v-28.98h-40.915v28.98c6.682 2.576 11.447 9.016 11.447 16.583 0 9.875-7.991 17.817-17.817 17.817s-17.817-7.943-17.817-17.817c0-7.567 4.765-14.007 11.447-16.583v-28.98H206.74c-7.894 0-14.318-6.44-14.318-14.329v-37.727c0-7.889 6.424-14.329 14.318-14.329h36.896v-72.986h-34.33v21.091c0 2.2-1.175 4.293-3.097 5.42l-55.432 33.273v13.202h10.803c7.894 0 14.318 6.44 14.318 14.329v37.727c0 7.889-6.424 14.329-14.318 14.329h-10.073v28.98c6.682 2.576 11.447 9.016 11.447 16.583 0 9.875-7.991 17.817-17.817 17.817-9.816 0-17.806-7.943-17.806-17.817 0-7.567 4.765-14.007 11.442-16.583v-28.98h-40.91v28.98c6.676 2.576 11.441 9.016 11.441 16.583 0 9.875-7.991 17.817-17.806 17.817-9.826 0-17.817-7.943-17.817-17.817 0-7.567 4.765-14.007 11.447-16.583v-28.98H75.051c-7.9 0-14.318-6.44-14.318-14.329v-37.727c0-7.889 6.418-14.329 14.318-14.329h62.983v-16.798c0-2.254 1.175-4.293 3.091-5.474l55.437-33.273v-17.441h-12.408c-8.892 0-16.116-7.245-16.116-16.1v-3.381h-32.651c-34.443 0-62.457-28.014-62.457-62.468 0-42.059 40.694-71.701 80.295-59.892 9.756-44.141 48.941-75.723 94.34-75.723 38.645 0 73.303 22.969 88.549 57.906 28.532-13.738 61.695 7.004 61.695 38.694 0 5.85-1.165 11.538-3.403 16.797 18.73 4.615 32.667 21.574 32.667 41.699 0 23.72-19.266 42.987-42.944 42.987h-52.164v3.381c0 8.855-7.229 16.1-16.121 16.1h-12.408v17.441l55.437 33.273c1.921 1.18 3.091 3.22 3.091 5.474v16.798h62.988c7.897 0 14.316 6.44 14.316 14.329zm-300.499 11.538a6.366 6.366 0 0 1 6.365-6.386h1.615c3.515 0 6.37 2.844 6.37 6.386s-2.855 6.386-6.37 6.386h-1.615c-3.516.001-6.365-2.844-6.365-6.386z" opacity="1" data-original="#1e2f3f"></path></g></g></svg>